<svg width="19" height="22" viewBox="0 0 19 22" fill="none" xmlns="http://www.w3.org/2000/svg">
<path d="M10.5237 3.2886C10.5237 2.56099 9.93584 1.97314 9.20823 1.97314C8.48062 1.97314 7.89277 2.56099 7.89277 3.2886V9.20817H1.9732C1.24559 9.20817 0.657745 9.79602 0.657745 10.5236C0.657745 11.2512 1.24559 11.8391 1.9732 11.8391H7.89277V17.7587C7.89277 18.4863 8.48062 19.0741 9.20823 19.0741C9.93584 19.0741 10.5237 18.4863 10.5237 17.7587V11.8391H16.4433C17.1709 11.8391 17.7587 11.2512 17.7587 10.5236C17.7587 9.79602 17.1709 9.20817 16.4433 9.20817H10.5237V3.2886Z" fill="#E6EBDC"/>
</svg>
