<svg width="131" height="133" viewBox="0 0 131 133" fill="none" xmlns="http://www.w3.org/2000/svg">
<path d="M46.7827 22.2772C46.4632 23.5757 46.1288 24.8892 46.1736 24.9247C46.5847 25.1582 47.1545 25.4927 47.7991 25.9131C47.8141 25.9261 47.8141 25.9261 47.829 25.9373C47.915 25.9803 48.0121 26.0364 48.0981 26.0812C48.0999 26.1074 48.1149 26.1186 48.1411 26.1148C49.2733 26.8547 50.6522 27.7628 52.0441 28.6839L52.0871 28.7194C61.302 36.1331 55.3848 43.6515 50.8801 39.3823C46.5249 35.255 44.1371 36.0005 43.0796 36.9011C43.8905 33.5529 45.2282 28.6185 45.9139 25.9373C45.5832 26.9182 44.1053 31.6677 43.9054 32.3702C43.8849 32.4244 43.8755 32.4655 43.8755 32.4655C43.8419 32.5365 43.8251 32.6168 43.7821 32.7009C43.7821 32.7009 43.7709 32.7159 43.7615 32.757C42.0875 37.1832 32.3756 62.526 53.0979 71.9165C74.6703 81.7013 96.4277 49.5538 47.403 19.6166C47.446 19.6502 47.1134 20.9637 46.7827 22.2772ZM72.9215 61.4517C72.9215 61.4517 66.9015 74.366 53.5538 68.4992C66.5746 72.3818 69.0614 57.0012 72.9215 61.4517ZM57.2121 57.0722C50.1664 50.0283 40.7721 51.7267 42.4331 39.9222C42.2781 44.6044 43.8363 49.8957 51.1959 51.0448C58.1388 52.1452 66.9221 41.6094 58.8039 33.4202C78.1119 48.1375 65.8328 65.7097 57.2121 57.0722ZM47.7991 25.9131C47.8141 25.9261 47.8141 25.9261 47.829 25.9373C47.915 25.9803 48.0121 26.0364 48.0981 26.0812C48.0999 26.1074 48.113 26.1186 48.1392 26.1148C49.6825 26.9687 50.9642 27.8207 52.0441 28.6839L52.0871 28.7194C61.302 36.1331 55.5081 38.2426 51.0034 33.9733C46.6482 29.846 44.1352 36.0005 43.0796 36.9011C42.9226 37.0374 42.7919 37.1701 42.6872 37.3009C42.5546 38.1267 42.463 38.988 42.4313 39.8942C42.4313 39.8942 42.4182 39.9092 42.4331 39.9204C42.2781 44.6025 45.0152 46.8876 51.1959 51.0448C68.2262 62.4942 66.9221 41.6094 58.8039 33.4202C58.8039 33.4202 58.8039 33.4184 58.789 33.4072C57.2308 31.8246 54.2469 29.392 51.2706 28.0897C50.8259 27.901 45.5907 23.0208 47.7991 25.9131ZM43.9484 32.2824C43.9503 32.3104 43.9278 32.3384 43.9054 32.3683C43.8849 32.4225 43.8755 32.4655 43.8755 32.4655C43.8419 32.5365 43.8251 32.6168 43.7821 32.7009C43.7821 32.7009 43.7709 32.7159 43.7615 32.757C43.4962 33.5959 43.0217 35.1765 42.7265 37.0711C42.9862 36.2976 43.4327 34.8122 43.9895 32.1703C43.9783 32.1871 43.9689 32.2282 43.9484 32.2824ZM42.5957 37.4466C42.6031 37.4055 42.6499 37.3476 42.6854 37.3028C42.691 37.2355 42.6966 37.1682 42.7171 37.114C42.6667 37.2392 42.6256 37.3495 42.5957 37.4466ZM42.562 37.4896C42.3472 37.9642 42.3453 37.8184 42.562 37.4896ZM10.224 55.555C27.4318 61.1098 38.7842 44.2774 43.1954 32.686C43.2608 32.5458 43.3243 32.4076 43.3729 32.2544C43.3841 32.2394 43.4159 32.1703 43.457 32.0601L43.4551 32.032C43.4663 32.0189 43.4757 31.9778 43.4981 31.9479C43.9951 30.67 45.8504 25.7449 46.1269 25.0088C45.019 27.1126 42.5602 32.7308 40.8749 36.2172C40.8749 36.2172 40.8599 36.2041 40.8637 36.2322C39.0233 38.4443 41.6148 30.0852 31.9907 32.1292C29.1993 32.7196 27.8765 23.6019 38.4254 23.7812C40.434 24.0222 42.4854 24.3006 44.081 24.5473C44.9218 24.693 45.6393 24.8107 46.1718 24.9265C46.2073 24.8836 46.4857 23.5757 46.7809 22.279C47.0761 20.9824 47.3545 19.6764 47.4012 19.6184C3.47908 9.32923 -12.335 48.259 10.224 55.555ZM5.52684 48.713C18.7849 53.7651 19.5211 47.009 25.6101 50.4656C16.0178 56.9582 5.52684 48.713 5.52684 48.713ZM31.5124 23.0339C20.0891 23.8279 19.6406 37.4653 25.5279 41.2619C31.7983 45.2957 36.4879 42.3922 39.4773 38.8031C32.8707 48.7111 24.463 41.4879 15.0724 41.3235C4.36283 41.1348 7.39523 21.2159 31.5124 23.0339ZM25.5279 41.2619C32.4858 43.9411 36.4879 42.3922 39.4773 38.8031L39.4885 38.7881C41.413 36.5012 42.6704 33.9415 43.1954 32.686C43.2608 32.5458 43.3243 32.4076 43.3729 32.2544C43.3841 32.2394 43.4159 32.1703 43.457 32.0601C43.4645 32.019 43.4888 31.9891 43.4981 31.9479C43.4738 31.9778 43.4645 32.0189 43.4551 32.032C42.1192 34.3619 41.3439 35.6305 40.8768 36.2154C40.8768 36.2154 42.0277 34.7431 42.0314 34.7711C40.1911 36.9833 45.7663 26.0289 36.1441 28.0729C33.3528 28.6633 27.8784 23.6 38.4254 23.7812C40.021 23.7887 41.91 24.0316 44.081 24.5473C43.6364 24.3828 41.3009 22.9685 40.8768 22.8433C37.6762 21.7914 33.8086 22.8844 31.5124 23.0339C20.0891 23.8261 4.24325 33.0671 25.5279 41.2619Z" fill="#1D1B27"/>
<path d="M31.8861 53.6997C32.555 51.949 36.374 49.0848 38.5208 45.1406C37.0522 52.4068 38.8888 54.3667 38.2218 56.1155C37.5548 57.8662 35.5949 58.7406 33.846 58.0736C32.0972 57.4066 31.2191 55.4467 31.8861 53.6997Z" fill="#1D1B27"/>
<path d="M50.5196 74.2334C50.5196 74.2334 53.7239 75.2648 54.8281 81.8078C50.7457 79.8778 50.5196 74.2334 50.5196 74.2334Z" fill="#1D1B27"/>
<path d="M9.92694 59.7233C9.92694 59.7233 6.84971 58.3575 1.67053 62.5034C5.99772 63.7851 9.92694 59.7233 9.92694 59.7233Z" fill="#1D1B27"/>
<path d="M47.788 9.76837L53.4006 12.8979C53.4006 12.8979 85.8807 -28.4626 85.8452 64.955C85.8433 71.7559 81.1742 93.0817 81.1742 93.0817H92.5303C110.444 -21.6131 55.951 -3.40377 47.788 9.76837Z" fill="#1D1B27"/>
<path d="M118.497 5.48213C95.0172 0.317905 95.6431 20.3713 95.6431 20.3713C98.3298 15.9264 105.684 13.0996 116.42 15.8012C109.148 14.6783 102.22 18.6412 99.7984 26.2605C127.763 22.2023 127.989 41.6616 128.293 39.3056C127.974 40.7162 139.076 10.0074 118.497 5.48213ZM102.915 11.7581C102.915 11.7581 108.455 5.23364 120.577 10.2054C116.765 13.0996 109.66 7.4346 102.915 11.7581Z" fill="#1D1B27"/>
<path d="M119.635 98.4812C119.635 101.463 117.217 103.881 114.235 103.881H51.3827C48.4008 103.881 45.9831 101.463 45.9831 98.4812C45.9831 95.4992 48.4008 93.0815 51.3827 93.0815H114.235C117.217 93.0815 119.635 95.4992 119.635 98.4812Z" fill="#1D1B27"/>
<path d="M113.929 103.281C113.929 105.934 111.78 132.372 109.129 132.372H56.392C53.7407 132.372 51.5902 105.934 51.5902 103.281C51.5902 100.63 53.7389 98.4814 56.392 98.4814H109.129C111.78 98.4814 113.929 100.63 113.929 103.281Z" fill="#1D1B27"/>
<path d="M29.4329 15.5231C29.4329 15.5231 41.8315 3.41406 53.2773 9.27706C53.2773 9.27706 61.9149 13.7911 61.4739 27.2921C53.4062 18.449 47.3937 16.6329 47.3937 16.6329C47.3937 16.6329 39.1616 13.8266 29.4329 15.5231Z" fill="#1D1B27"/>
<path d="M46.7118 73.1979C41.5326 68.456 38.2778 61.8139 38.2778 61.8139C38.2778 61.8139 32.0617 63.2768 28.0335 58.2639C28.0335 58.2639 18.4468 62.4155 14.3419 60.3079C19.5958 73.4539 35.8975 81.488 46.7118 73.1979ZM40.5405 72.4487C40.5405 72.4487 31.2265 78.3267 18.3702 63.5272C30.1036 75.4213 39.3653 66.9276 40.5405 72.4487Z" fill="#1D1B27"/>
<path d="M47.3825 24.4726C39.3969 21.2101 31.7236 21.5016 30.2438 25.1238C28.7639 28.746 34.0378 34.3271 42.0234 37.5897C50.009 40.8522 57.6823 40.5607 59.1621 36.9386C60.642 33.3164 55.368 27.7352 47.3825 24.4726Z" fill="#1D1B27"/>
</svg>
