<svg width="24" height="22" viewBox="0 0 24 22" fill="none" xmlns="http://www.w3.org/2000/svg">
<g clip-path="url(#clip0_118_723)">
<path d="M23.67 10.5031C23.67 11.2431 23.0534 11.8227 22.3546 11.8227H21.0391L21.0679 18.4082C21.0679 18.5192 21.0597 18.6302 21.0473 18.7412V19.403C21.0473 20.3115 20.3115 21.0473 19.403 21.0473H18.7453C18.7001 21.0473 18.6549 21.0473 18.6096 21.0432C18.5521 21.0473 18.4945 21.0473 18.437 21.0473H17.101H16.1144C15.2059 21.0473 14.4701 20.3115 14.4701 19.403V18.4164V15.7855C14.4701 15.0579 13.8822 14.4701 13.1546 14.4701H10.5237C9.79606 14.4701 9.20821 15.0579 9.20821 15.7855V18.4164V19.403C9.20821 20.3115 8.47238 21.0473 7.56389 21.0473H6.5773H5.26595C5.20429 21.0473 5.14262 21.0432 5.08096 21.0391C5.03163 21.0432 4.9823 21.0473 4.93297 21.0473H4.27524C3.36675 21.0473 2.63092 20.3115 2.63092 19.403V14.7989C2.63092 14.7619 2.63092 14.7208 2.63503 14.6838V11.8227H1.31546C0.575513 11.8227 0 11.2472 0 10.5031C0 10.1331 0.123324 9.80428 0.411081 9.51652L10.9512 0.328865C11.239 0.0411081 11.5678 0 11.8556 0C12.1433 0 12.4722 0.0822162 12.7188 0.287757L23.2179 9.51652C23.5467 9.80428 23.7112 10.1331 23.67 10.5031Z" fill="#E6EBDC"/>
</g>
<defs>
<clipPath id="clip0_118_723">
<rect width="23.6783" height="21.0473" fill="white"/>
</clipPath>
</defs>
</svg>
