<svg width="36" height="36" viewBox="0 0 36 36" fill="none" xmlns="http://www.w3.org/2000/svg">
<circle cx="18" cy="18" r="18" fill="#00CD8E"/>
<g clip-path="url(#clip0_382_79)">
<path d="M26.7855 11.0491C26.7855 14.7734 24.012 17.8518 20.4188 18.3272C20.186 16.5765 19.4156 14.9963 18.278 13.7603C19.5336 11.5179 21.9334 10 24.6873 10H25.7364C26.3167 10 26.7855 10.4688 26.7855 11.0491ZM10 13.1473C10 12.567 10.4688 12.0982 11.0491 12.0982H12.0982C16.1536 12.0982 19.4418 15.3864 19.4418 19.4418V20.4909V25.7364C19.4418 26.3167 18.973 26.7855 18.3928 26.7855C17.8125 26.7855 17.3437 26.3167 17.3437 25.7364V20.4909C13.2883 20.4909 10 17.2027 10 13.1473Z" fill="white"/>
</g>
<defs>
<clipPath id="clip0_382_79">
<rect width="16.7855" height="16.7855" fill="white" transform="translate(10 10)"/>
</clipPath>
</defs>
</svg>
