<svg width="22" height="22" viewBox="0 0 22 22" fill="none" xmlns="http://www.w3.org/2000/svg">
<g clip-path="url(#clip0_125_725)">
<path d="M21.0473 1.31546C21.0473 5.98534 17.5696 9.84539 13.0642 10.4415C12.7723 8.24628 11.8062 6.26487 10.3798 4.7151C11.9542 1.9033 14.9633 0 18.4164 0H19.7319C20.4595 0 21.0473 0.587846 21.0473 1.31546ZM0 3.94638C0 3.21876 0.587846 2.63092 1.31546 2.63092H2.63092C7.71599 2.63092 11.8391 6.75406 11.8391 11.8391V13.1546V19.7319C11.8391 20.4595 11.2513 21.0473 10.5237 21.0473C9.79606 21.0473 9.20821 20.4595 9.20821 19.7319V13.1546C4.12314 13.1546 0 9.03145 0 3.94638Z" fill="#E6EBDC"/>
</g>
<defs>
<clipPath id="clip0_125_725">
<rect width="21.0473" height="21.0473" fill="white"/>
</clipPath>
</defs>
</svg>
